<svg width="81" height="30" viewBox="0 0 81 30" fill="none" xmlns="http://www.w3.org/2000/svg">
<path d="M1.344 24V6.72H4.824L11.088 14.184L17.328 6.72H20.832V24H17.64V11.328L11.088 19.128L4.512 11.352V24H1.344ZM26.9456 24C26.3376 24 25.7776 23.848 25.2656 23.544C24.7696 23.24 24.3696 22.84 24.0656 22.344C23.7616 21.832 23.6096 21.272 23.6096 20.664V10.056C23.6096 9.448 23.7616 8.896 24.0656 8.4C24.3696 7.888 24.7696 7.48 25.2656 7.176C25.7776 6.872 26.3376 6.72 26.9456 6.72H40.8416V9.912H27.6176C27.3616 9.912 27.1536 9.984 26.9936 10.128C26.8496 10.272 26.7776 10.48 26.7776 10.752V19.968C26.7776 20.224 26.8496 20.432 26.9936 20.592C27.1536 20.736 27.3616 20.808 27.6176 20.808H40.8416V24H26.9456ZM46.608 24C46 24 45.44 23.848 44.928 23.544C44.432 23.24 44.032 22.84 43.728 22.344C43.424 21.832 43.272 21.272 43.272 20.664V19.344H46.44V20.52C46.44 20.6 46.464 20.672 46.512 20.736C46.576 20.784 46.648 20.808 46.728 20.808H57.072C57.152 20.808 57.216 20.784 57.264 20.736C57.328 20.672 57.36 20.6 57.36 20.52V17.232C57.36 17.152 57.328 17.088 57.264 17.04C57.216 16.992 57.152 16.968 57.072 16.968H46.608C46 16.968 45.44 16.816 44.928 16.512C44.432 16.208 44.032 15.808 43.728 15.312C43.424 14.8 43.272 14.232 43.272 13.608V10.056C43.272 9.448 43.424 8.896 43.728 8.4C44.032 7.888 44.432 7.48 44.928 7.176C45.44 6.872 46 6.72 46.608 6.72H57.216C57.824 6.72 58.376 6.872 58.872 7.176C59.384 7.48 59.792 7.888 60.096 8.4C60.4 8.896 60.552 9.448 60.552 10.056V11.376H57.36V10.2C57.36 10.12 57.328 10.056 57.264 10.008C57.216 9.944 57.152 9.912 57.072 9.912H46.728C46.648 9.912 46.576 9.944 46.512 10.008C46.464 10.056 46.44 10.12 46.44 10.2V13.488C46.44 13.568 46.464 13.632 46.512 13.68C46.576 13.728 46.648 13.752 46.728 13.752H57.216C57.824 13.752 58.376 13.904 58.872 14.208C59.384 14.512 59.792 14.92 60.096 15.432C60.4 15.928 60.552 16.488 60.552 17.112V20.664C60.552 21.272 60.4 21.832 60.096 22.344C59.792 22.84 59.384 23.24 58.872 23.544C58.376 23.848 57.824 24 57.216 24H46.608ZM69.3641 24V9.912H62.3081V6.72H79.5881V9.912H72.5561V24H69.3641Z" fill="black"/>
</svg>
