<svg viewBox="0 0 79 18" fill="none" xmlns="http://www.w3.org/2000/svg">
<path d="M0.344 18V0.719999H3.824L10.088 8.184L16.328 0.719999H19.832V18H16.64V5.328L10.088 13.128L3.512 5.352V18H0.344ZM25.9456 18C25.3376 18 24.7776 17.848 24.2656 17.544C23.7696 17.24 23.3696 16.84 23.0656 16.344C22.7616 15.832 22.6096 15.272 22.6096 14.664V4.056C22.6096 3.448 22.7616 2.896 23.0656 2.4C23.3696 1.888 23.7696 1.48 24.2656 1.176C24.7776 0.871999 25.3376 0.719999 25.9456 0.719999H39.8416V3.912H26.6176C26.3616 3.912 26.1536 3.984 25.9936 4.128C25.8496 4.272 25.7776 4.48 25.7776 4.752V13.968C25.7776 14.224 25.8496 14.432 25.9936 14.592C26.1536 14.736 26.3616 14.808 26.6176 14.808H39.8416V18H25.9456ZM45.608 18C45 18 44.44 17.848 43.928 17.544C43.432 17.24 43.032 16.84 42.728 16.344C42.424 15.832 42.272 15.272 42.272 14.664V13.344H45.44V14.52C45.44 14.6 45.464 14.672 45.512 14.736C45.576 14.784 45.648 14.808 45.728 14.808H56.072C56.152 14.808 56.216 14.784 56.264 14.736C56.328 14.672 56.36 14.6 56.36 14.52V11.232C56.36 11.152 56.328 11.088 56.264 11.04C56.216 10.992 56.152 10.968 56.072 10.968H45.608C45 10.968 44.44 10.816 43.928 10.512C43.432 10.208 43.032 9.808 42.728 9.312C42.424 8.8 42.272 8.232 42.272 7.608V4.056C42.272 3.448 42.424 2.896 42.728 2.4C43.032 1.888 43.432 1.48 43.928 1.176C44.44 0.871999 45 0.719999 45.608 0.719999H56.216C56.824 0.719999 57.376 0.871999 57.872 1.176C58.384 1.48 58.792 1.888 59.096 2.4C59.4 2.896 59.552 3.448 59.552 4.056V5.376H56.36V4.2C56.36 4.12 56.328 4.056 56.264 4.008C56.216 3.944 56.152 3.912 56.072 3.912H45.728C45.648 3.912 45.576 3.944 45.512 4.008C45.464 4.056 45.44 4.12 45.44 4.2V7.488C45.44 7.568 45.464 7.632 45.512 7.68C45.576 7.728 45.648 7.752 45.728 7.752H56.216C56.824 7.752 57.376 7.904 57.872 8.208C58.384 8.512 58.792 8.92 59.096 9.432C59.4 9.928 59.552 10.488 59.552 11.112V14.664C59.552 15.272 59.4 15.832 59.096 16.344C58.792 16.84 58.384 17.24 57.872 17.544C57.376 17.848 56.824 18 56.216 18H45.608ZM68.3641 18V3.912H61.3081V0.719999H78.5881V3.912H71.5561V18H68.3641Z" fill="#696969"/>
</svg>
